<svg width="426" height="121" xmlns="http://www.w3.org/2000/svg">
  <path d="M177 64.9v31.097h-12.486v-29.38c0-7.976-3.859-12.52-10.658-12.52-7.206 0-11.37 5.252-11.37 14.743V96H130V45.21h12.486l-.305 10.905C144.415 48.543 150.2 44 158.119 44 169.59 44 177 52.179 177 64.9zm46.444 15.947c-1.52 4.604-6.391 7.626-12.13 7.626-7.956 0-13.465-5.977-13.666-14.082h38.045c.205-1.215.307-2.633.307-4.051C236 54.84 225.495 44 210.909 44 195.61 44 185 55.348 185 71.05 185 86.856 196.016 98 211.318 98c11.509 0 20.568-6.127 22.951-14.79l-10.825-2.363zM210.05 54C217.697 54 223 59.754 223 67h-26c.409-7.743 5.814-13 13.051-13zm88.106 19.915c-2.808 7.478-10.941 12.479-19.428 12.479-13.035 0-22.47-10.669-22.47-24.894 0-14.822 9.887-24.995 22.47-24.995 9.573 0 16.977 5.287 19.823 13.176L311 46.633C307.466 33.848 294.148 25 278.725 25 258.363 25 243 41.039 243 61.5c0 21.295 15.87 36.5 35.725 36.5 15.433 0 27.815-8.516 31.824-20.834l-12.392-3.25zM339.035 45c7.662 0 12.338 3.61 14.895 8.154h.474v-7.136H366v50.96h-11.596v-7.132h-.474C351.317 94.192 346.697 98 339.035 98 327.439 98 317 88.42 317 71.502 317 54.479 326.937 45 339.035 45zm3.846 43C349.531 88 355 81.548 355 71s-5.473-17-12.119-17h-.905C335.024 54 330 60.76 330 71c0 10.14 5.024 17 11.976 17h.905zM377 80.488V27h12.412v51.262c0 5.403 1.919 7.95 6.257 7.95 1.008 0 2.12-.205 3.028-.613l.303 10.28c-1.918.614-4.642 1.121-7.67 1.121-8.272 0-14.33-4.994-14.33-16.512zm27 .32V27h12.412v51.262c0 5.403 1.919 7.95 6.257 7.95 1.008 0 2.12-.205 3.028-.613l.303 10.28c-1.918.614-4.642 1.121-7.67 1.121-8.275 0-14.33-4.677-14.33-16.192zM60.498 0C27.088 0 0 27.105 0 60.538 0 92.93 25.424 119.381 57.396 121V58.287h-.542c-3.232 5.5-11.973 8.513-21.448 8.513V45.037c14.691 0 24.973-7.055 24.973-17.348H83.84v88.717C105.666 107.267 121 85.693 121 60.538 120.997 27.105 93.913 0 60.498 0z" fill="#e00" fill-rule="nonzero"/>
</svg>
